<svg width="21" height="20" viewBox="0 0 21 20" fill="none" xmlns="http://www.w3.org/2000/svg">
<path d="M10.5 20C16.0228 20 20.5 15.5228 20.5 10C20.5 4.47715 16.0228 0 10.5 0C4.97715 0 0.5 4.47715 0.5 10C0.5 15.5228 4.97715 20 10.5 20Z" fill="url(#paint0_linear_126_147)"/>
<path d="M3.62927 6.04688H6.22138V11.7254H9.69218V13.7353H3.62927V6.04688Z" fill="white"/>
<path d="M12.0756 13.3998C11.4236 13.0593 10.9134 12.583 10.5439 11.9719C10.1745 11.3609 9.98975 10.6669 9.98975 9.89106C9.98975 9.11523 10.1745 8.42127 10.5439 7.81019C10.9134 7.1991 11.4246 6.72282 12.0756 6.38233C12.7276 6.04184 13.4595 5.87109 14.2723 5.87109C15.0192 5.87109 15.6852 6.0029 16.2713 6.2665C16.8574 6.53011 17.3407 6.91053 17.7211 7.40879L16.0846 8.8696C15.6083 8.2695 15.0482 7.96895 14.4041 7.96895C13.8619 7.96895 13.4266 8.14269 13.0971 8.49017C12.7676 8.83764 12.6028 9.30494 12.6028 9.89106C12.6028 10.4772 12.7676 10.9435 13.0971 11.292C13.4266 11.6394 13.8619 11.8132 14.4041 11.8132C15.0482 11.8132 15.6083 11.5126 16.0846 10.9125L17.7211 12.3733C17.3407 12.8716 16.8574 13.252 16.2713 13.5156C15.6852 13.7792 15.0192 13.911 14.2723 13.911C13.4595 13.911 12.7276 13.7403 12.0756 13.3998Z" fill="white"/>
<defs>
<linearGradient id="paint0_linear_126_147" x1="15.6701" y1="18.9557" x2="5.66873" y2="1.63279" gradientUnits="userSpaceOnUse">
<stop offset="3.04946e-07" stop-color="#0044D0"/>
<stop offset="0.1502" stop-color="#0852D5"/>
<stop offset="0.4285" stop-color="#1265DC"/>
<stop offset="0.7107" stop-color="#1971E1"/>
<stop offset="1" stop-color="#1B75E2"/>
</linearGradient>
</defs>
</svg>
