<svg width="115" height="31" viewBox="0 0 115 31" fill="none" xmlns="http://www.w3.org/2000/svg">
<path d="M35.2109 9.30078H39.0453V17.8185H44.1794V20.8335H35.2109V9.30078Z" fill="url(#paint0_linear_106_686)"/>
<path d="M54.6914 17.9009V20.8335H45.2355V9.30078H54.4802V12.2334H49.0049V13.5844H53.8141V16.3852H49.0049V17.9009H54.6914Z" fill="url(#paint1_linear_106_686)"/>
<path d="M58.638 12.3158H55.3074V9.30078H65.8031V12.3158H62.4724V20.8335H58.638V12.3158Z" fill="url(#paint2_linear_106_686)"/>
<path d="M66.7942 9.30078H70.6286V20.8335H66.7942V9.30078Z" fill="url(#paint3_linear_106_686)"/>
<path d="M75.1128 20.3301C74.1483 19.8194 73.3936 19.105 72.8471 18.1884C72.3006 17.2717 72.0258 16.2308 72.0258 15.067C72.0258 13.9033 72.2991 12.8623 72.8471 11.9457C73.3936 11.0291 74.1498 10.3147 75.1128 9.80393C76.0773 9.29319 77.16 9.03857 78.3623 9.03857C79.4671 9.03857 80.4523 9.23628 81.3193 9.63168C82.1863 10.0271 82.9012 10.5977 83.464 11.3451L81.0431 13.5363C80.3386 12.6362 79.5099 12.1854 78.5573 12.1854C77.7552 12.1854 77.1112 12.446 76.6238 12.9672C76.1364 13.4884 75.8927 14.1893 75.8927 15.0685C75.8927 15.9477 76.1364 16.6472 76.6238 17.1699C77.1112 17.6911 77.7552 17.9517 78.5573 17.9517C79.5099 17.9517 80.3386 17.5009 81.0431 16.6007L83.464 18.7919C82.9012 19.5393 82.1863 20.11 81.3193 20.5054C80.4523 20.9008 79.4671 21.0985 78.3623 21.0985C77.16 21.097 76.0773 20.8409 75.1128 20.3301Z" fill="url(#paint4_linear_106_686)"/>
<path d="M86.9896 20.3227C86.0148 19.806 85.2512 19.09 84.6988 18.1734C84.1463 17.2568 83.8701 16.2203 83.8701 15.0671C83.8701 13.9138 84.1463 12.8788 84.6988 11.9607C85.2512 11.0441 86.0148 10.3267 86.9896 9.81145C87.9645 9.29472 89.0634 9.03711 90.2878 9.03711C91.5123 9.03711 92.6112 9.29472 93.586 9.81145C94.5609 10.3282 95.3245 11.0441 95.8769 11.9607C96.4293 12.8773 96.7055 13.9138 96.7055 15.0671C96.7055 16.2203 96.4293 17.2553 95.8769 18.1734C95.3245 19.09 94.5609 19.8075 93.586 20.3227C92.6112 20.8394 91.5123 21.097 90.2878 21.097C89.0634 21.097 87.9645 20.8394 86.9896 20.3227ZM91.5802 17.5953C91.9643 17.3586 92.2715 17.0246 92.4989 16.5903C92.7264 16.1559 92.8401 15.6482 92.8401 15.0671C92.8401 14.4844 92.7264 13.9767 92.4989 13.5438C92.2715 13.1095 91.9657 12.7755 91.5802 12.5389C91.1962 12.3022 90.7649 12.1839 90.2893 12.1839C89.8122 12.1839 89.3824 12.3022 88.9969 12.5389C88.6129 12.7755 88.3071 13.1095 88.0797 13.5438C87.8522 13.9782 87.7385 14.4859 87.7385 15.0671C87.7385 15.6497 87.8522 16.1574 88.0797 16.5903C88.3071 17.0246 88.6129 17.3586 88.9969 17.5953C89.3809 17.8319 89.8122 17.9502 90.2893 17.9502C90.7649 17.9502 91.1947 17.8319 91.5802 17.5953Z" fill="url(#paint5_linear_106_686)"/>
<path d="M98.1028 9.30078H101.937V20.8335H98.1028V9.30078Z" fill="url(#paint6_linear_106_686)"/>
<path d="M115 9.30078V20.8335H111.848L107.526 15.5943V20.8335H103.789V9.30078H106.941L111.263 14.5399V9.30078H115Z" fill="url(#paint7_linear_106_686)"/>
<path d="M14.7924 30.4941C22.9621 30.4941 29.5849 23.7784 29.5849 15.4941C29.5849 7.20987 22.9621 0.494141 14.7924 0.494141C6.6228 0.494141 0 7.20987 0 15.4941C0 23.7784 6.6228 30.4941 14.7924 30.4941Z" fill="url(#paint8_linear_106_686)"/>
<path d="M4.63049 9.56445H8.46485V18.0822H13.599V21.0972H4.63049V9.56445Z" fill="white"/>
<path d="M17.1247 20.5938C16.1602 20.0831 15.4054 19.3687 14.8589 18.4521C14.3124 17.5354 14.0392 16.4945 14.0392 15.3307C14.0392 14.167 14.3124 13.126 14.8589 12.2094C15.4054 11.2928 16.1617 10.5784 17.1247 10.0676C18.0892 9.5569 19.1718 9.30078 20.3741 9.30078C21.479 9.30078 22.4641 9.49848 23.3312 9.89389C24.1982 10.2893 24.913 10.8599 25.4758 11.6073L23.0549 13.7985C22.3504 12.8984 21.5218 12.4476 20.5691 12.4476C19.7671 12.4476 19.1231 12.7082 18.6357 13.2294C18.1483 13.7506 17.9045 14.4516 17.9045 15.3307C17.9045 16.2099 18.1483 16.9094 18.6357 17.4321C19.1231 17.9533 19.7671 18.2139 20.5691 18.2139C21.5218 18.2139 22.3504 17.7631 23.0549 16.8629L25.4758 19.0542C24.913 19.8015 24.1982 20.3722 23.3312 20.7676C22.4641 21.163 21.479 21.3607 20.3741 21.3607C19.1718 21.3607 18.0892 21.1046 17.1247 20.5938Z" fill="white"/>
<defs>
<linearGradient id="paint0_linear_106_686" x1="12.2636" y1="21.0969" x2="12.2636" y2="9.03704" gradientUnits="userSpaceOnUse">
<stop offset="2.67547e-07" stop-color="#0044D0"/>
<stop offset="0.1002" stop-color="#034AD2"/>
<stop offset="0.6777" stop-color="#1569DE"/>
<stop offset="1" stop-color="#1B75E2"/>
</linearGradient>
<linearGradient id="paint1_linear_106_686" x1="21.041" y1="21.0969" x2="21.041" y2="9.03704" gradientUnits="userSpaceOnUse">
<stop offset="2.67547e-07" stop-color="#0044D0"/>
<stop offset="0.1002" stop-color="#034AD2"/>
<stop offset="0.6777" stop-color="#1569DE"/>
<stop offset="1" stop-color="#1B75E2"/>
</linearGradient>
<linearGradient id="paint2_linear_106_686" x1="28.4523" y1="21.0969" x2="28.4523" y2="9.03704" gradientUnits="userSpaceOnUse">
<stop offset="2.67547e-07" stop-color="#0044D0"/>
<stop offset="0.1002" stop-color="#034AD2"/>
<stop offset="0.6777" stop-color="#1569DE"/>
<stop offset="1" stop-color="#1B75E2"/>
</linearGradient>
<linearGradient id="paint3_linear_106_686" x1="56.9834" y1="21.0969" x2="56.9834" y2="9.03704" gradientUnits="userSpaceOnUse">
<stop offset="2.67547e-07" stop-color="#0044D0"/>
<stop offset="0.1002" stop-color="#034AD2"/>
<stop offset="0.6777" stop-color="#1569DE"/>
<stop offset="1" stop-color="#1B75E2"/>
</linearGradient>
<linearGradient id="paint4_linear_106_686" x1="42.7597" y1="21.3739" x2="42.7597" y2="8.76278" gradientUnits="userSpaceOnUse">
<stop offset="2.67547e-07" stop-color="#0044D0"/>
<stop offset="0.1002" stop-color="#034AD2"/>
<stop offset="0.6777" stop-color="#1569DE"/>
<stop offset="1" stop-color="#1B75E2"/>
</linearGradient>
<linearGradient id="paint5_linear_106_686" x1="51.0288" y1="21.3725" x2="51.0288" y2="8.76131" gradientUnits="userSpaceOnUse">
<stop offset="2.67547e-07" stop-color="#0044D0"/>
<stop offset="0.1002" stop-color="#034AD2"/>
<stop offset="0.6777" stop-color="#1569DE"/>
<stop offset="1" stop-color="#1B75E2"/>
</linearGradient>
<linearGradient id="paint6_linear_106_686" x1="88.292" y1="21.0969" x2="88.292" y2="9.03704" gradientUnits="userSpaceOnUse">
<stop offset="2.67547e-07" stop-color="#0044D0"/>
<stop offset="0.1002" stop-color="#034AD2"/>
<stop offset="0.6777" stop-color="#1569DE"/>
<stop offset="1" stop-color="#1B75E2"/>
</linearGradient>
<linearGradient id="paint7_linear_106_686" x1="75.1052" y1="21.0969" x2="75.1052" y2="9.03704" gradientUnits="userSpaceOnUse">
<stop offset="2.67547e-07" stop-color="#0044D0"/>
<stop offset="0.1002" stop-color="#034AD2"/>
<stop offset="0.6777" stop-color="#1569DE"/>
<stop offset="1" stop-color="#1B75E2"/>
</linearGradient>
<linearGradient id="paint8_linear_106_686" x1="-75.6975" y1="31.1794" x2="-75.6975" y2="-0.191923" gradientUnits="userSpaceOnUse">
<stop offset="2.67547e-07" stop-color="#0044D0"/>
<stop offset="0.1002" stop-color="#034AD2"/>
<stop offset="0.6777" stop-color="#1569DE"/>
<stop offset="1" stop-color="#1B75E2"/>
</linearGradient>
</defs>
</svg>
