<svg width="319" height="284" viewBox="0 0 319 284" fill="none" xmlns="http://www.w3.org/2000/svg">
<path d="M46.6211 111.516C68.2581 111.516 85.7983 94.0117 85.7983 72.4191C85.7983 50.8265 68.2581 33.3223 46.6211 33.3223C24.9841 33.3223 7.4439 50.8265 7.4439 72.4191C7.4439 94.0117 24.9841 111.516 46.6211 111.516Z" fill="url(#paint0_linear_108_371)"/>
<path d="M52.7988 52.7534V93.7232H41.1473V61.7277H33.4838V52.7534H52.7988Z" fill="#FAFAFA"/>
<path d="M162.12 250.813C183.757 250.813 201.297 233.309 201.297 211.716C201.297 190.123 183.757 172.619 162.12 172.619C140.483 172.619 122.942 190.123 122.942 211.716C122.942 233.309 140.483 250.813 162.12 250.813Z" fill="url(#paint1_linear_108_371)"/>
<path d="M179.01 221.627V230.835H147.106V223.578L162.432 209.219C163.918 207.814 164.935 206.643 165.404 205.629C165.873 204.614 166.186 203.6 166.186 202.585C166.186 201.259 165.717 200.244 164.857 199.464C163.918 198.762 162.667 198.371 160.947 198.371C159.383 198.371 158.053 198.684 156.724 199.386C155.473 200.088 154.378 201.025 153.596 202.351L144.994 197.591C146.558 194.938 148.826 192.831 151.719 191.348C154.613 189.865 158.053 189.085 161.963 189.085C165.091 189.085 167.828 189.631 170.252 190.646C172.676 191.66 174.553 193.143 175.882 195.016C177.212 196.889 177.916 199.074 177.916 201.571C177.916 203.756 177.446 205.863 176.508 207.892C175.57 209.843 173.693 212.106 170.956 214.603L163.214 221.783H179.01V221.627Z" fill="#FAFAFA"/>
<path d="M279.338 110.735C300.975 110.735 318.516 93.2309 318.516 71.6384C318.516 50.0458 300.975 32.5415 279.338 32.5415C257.701 32.5415 240.161 50.0458 240.161 71.6384C240.161 93.2309 257.701 110.735 279.338 110.735Z" fill="url(#paint2_linear_108_371)"/>
<path d="M293.336 71.8725C295.135 73.9795 296.073 76.4767 296.073 79.4422C296.073 81.8613 295.447 84.1244 294.118 86.1534C292.789 88.2604 290.834 89.8992 288.175 91.1478C285.516 92.3964 282.154 93.0207 278.244 93.0207C275.35 93.0207 272.457 92.7086 269.642 92.0062C266.827 91.3039 264.324 90.2894 262.291 89.0408L266.514 80.3006C268.078 81.3931 269.955 82.2515 271.91 82.7978C273.943 83.4221 275.898 83.6562 277.853 83.6562C279.808 83.6562 281.45 83.266 282.623 82.5637C283.796 81.8613 284.421 80.7688 284.421 79.4422C284.421 76.7889 282.31 75.4623 278.166 75.4623H273.317V68.1267L280.668 60.2449H264.481V51.3486H294.196V58.6061L285.516 67.7365C288.879 68.4389 291.537 69.8435 293.336 71.8725Z" fill="#FAFAFA"/>
<path d="M29.0266 1.0147C29.5739 1.24881 29.9649 1.639 30.2777 2.02919C30.5905 2.49741 30.7469 3.04368 30.7469 3.66798C30.7469 4.29228 30.5905 4.83854 30.2777 5.30677C29.9649 5.77499 29.5739 6.08715 29.0266 6.32126C28.4792 6.55537 27.8536 6.71145 27.0716 6.71145H25.3512V8.97454H23.3963V0.624512H26.9934C27.8536 0.624512 28.4792 0.780587 29.0266 1.0147ZM28.3228 4.68247C28.6356 4.44836 28.792 4.05817 28.792 3.58994C28.792 3.12172 28.6356 2.73153 28.3228 2.49742C28.01 2.2633 27.5408 2.10723 26.9934 2.10723H25.4294V4.99462H26.9934C27.5408 5.07266 28.01 4.99462 28.3228 4.68247Z" fill="black"/>
<path d="M38.4103 6.32091H33.562C33.6402 6.7111 33.8748 7.02325 34.1876 7.25736C34.5004 7.49148 34.8914 7.56951 35.4388 7.56951C35.7516 7.56951 36.0644 7.49148 36.299 7.41344C36.5336 7.3354 36.7682 7.17933 37.0028 6.94521L38.0193 8.03774C37.3937 8.74008 36.5336 9.05223 35.3606 9.05223C34.6568 9.05223 34.0312 8.89616 33.4056 8.66204C32.8583 8.34989 32.3891 7.9597 32.1545 7.49148C31.8417 7.02325 31.6853 6.39895 31.6853 5.77465C31.6853 5.15035 31.8417 4.60409 32.1545 4.05782C32.4673 3.5896 32.8583 3.12137 33.4056 2.88726C33.953 2.57511 34.5004 2.49707 35.126 2.49707C35.7516 2.49707 36.299 2.65315 36.8464 2.88726C37.3937 3.12137 37.7847 3.51156 38.0193 4.05782C38.3321 4.52605 38.4885 5.15035 38.4885 5.85269C38.4103 5.77465 38.4103 6.00876 38.4103 6.32091ZM34.0312 4.2139C33.7184 4.44801 33.562 4.76016 33.4838 5.22839H36.6118C36.5336 4.8382 36.3772 4.52605 36.0644 4.29194C35.7516 4.05782 35.517 3.82371 35.0478 3.82371C34.6568 3.82371 34.2658 3.97978 34.0312 4.2139Z" fill="black"/>
<path d="M49.9836 2.5752V8.97428H40.1307V2.5752H42.0074V7.49157H44.1188V2.5752H45.9955V7.49157H48.1069V2.5752H49.9836Z" fill="black"/>
<path d="M56.8651 3.19932C57.4124 3.66755 57.647 4.36989 57.647 5.30634V8.97411H55.9267V8.19373C55.6139 8.81803 54.9101 9.05214 53.9717 9.05214C53.5025 9.05214 53.0334 8.97411 52.7206 8.81803C52.4078 8.66196 52.095 8.42784 51.8604 8.11569C51.704 7.80354 51.5476 7.49139 51.5476 7.1012C51.5476 6.4769 51.7822 6.00868 52.2514 5.69653C52.7206 5.38437 53.4243 5.15026 54.3627 5.15026H55.8485C55.8485 4.76007 55.6921 4.44792 55.4575 4.21381C55.2229 3.9797 54.8319 3.90166 54.3627 3.90166C54.0499 3.90166 53.6589 3.9797 53.3461 4.05773C53.0334 4.13577 52.7206 4.29185 52.486 4.52596L51.7822 3.19932C52.095 2.96521 52.5642 2.7311 53.0334 2.65306C53.5025 2.49698 54.0499 2.41895 54.5191 2.41895C55.5357 2.41895 56.3177 2.65306 56.8651 3.19932ZM55.2229 7.56943C55.4575 7.41335 55.6139 7.17924 55.7703 6.94513V6.32083H54.5191C53.7371 6.32083 53.3461 6.55494 53.3461 7.1012C53.3461 7.33532 53.4243 7.49139 53.6589 7.64747C53.8153 7.80354 54.1281 7.88158 54.4409 7.88158C54.6755 7.80354 54.9883 7.7255 55.2229 7.56943Z" fill="black"/>
<path d="M59.5238 2.57524H61.4005V6.39908L64.5285 2.57524H66.2488V8.97433H64.3721V5.15048L61.2441 8.97433H59.5238V2.57524ZM60.6968 0H61.9479C61.9479 0.31215 62.0261 0.468225 62.1825 0.6243C62.3389 0.780376 62.5735 0.858413 62.8081 0.858413C63.1209 0.858413 63.2773 0.780376 63.4337 0.6243C63.5901 0.468225 63.6683 0.234113 63.6683 0H64.9195C64.9195 1.2486 64.2157 1.8729 62.8081 1.8729C61.4005 1.8729 60.6968 1.2486 60.6968 0Z" fill="black"/>
<path d="M6.11453 15.2955C6.66191 15.5296 7.0529 15.9198 7.3657 16.3099C7.67849 16.7782 7.83489 17.3244 7.83489 17.9487C7.83489 18.573 7.67849 19.1193 7.3657 19.5875C7.0529 20.0558 6.66191 20.3679 6.11453 20.602C5.56714 20.8361 4.94156 20.9922 4.15958 20.9922H2.43922V23.2553H0.484268V14.9053H4.08138C4.94156 14.9053 5.56714 15.0613 6.11453 15.2955ZM5.41074 19.0413C5.72354 18.8072 5.87993 18.417 5.87993 17.9487C5.87993 17.4805 5.72354 17.0903 5.41074 16.8562C5.09795 16.6221 4.62876 16.466 4.08138 16.466H2.51742V19.4315H4.08138C4.62876 19.4315 5.09795 19.2754 5.41074 19.0413Z" fill="black"/>
<path d="M12.0576 17.0124C12.4486 16.8564 12.8396 16.7783 13.3869 16.7783V18.4951C13.1524 18.4951 13.0742 18.4951 12.996 18.4951C12.4486 18.4951 12.0576 18.6512 11.7448 18.9634C11.432 19.2755 11.2756 19.7437 11.2756 20.29V23.3335H9.39885V16.9344H11.1974V17.7928C11.3538 17.4026 11.6666 17.1685 12.0576 17.0124Z" fill="black"/>
<path d="M15.9675 22.9433C15.4201 22.6311 15.0291 22.241 14.7163 21.7727C14.4035 21.3045 14.2471 20.6802 14.2471 20.0559C14.2471 19.4316 14.4035 18.8853 14.7163 18.3391C15.0291 17.7928 15.4201 17.4807 15.9675 17.1685C16.5149 16.8564 17.1405 16.7783 17.766 16.7783C18.4698 16.7783 19.0172 16.9344 19.5646 17.1685C20.112 17.4807 20.503 17.8708 20.8158 18.3391C21.1286 18.8073 21.2849 19.4316 21.2849 20.0559C21.2849 20.6802 21.1286 21.2265 20.8158 21.7727C20.503 22.241 20.112 22.6311 19.5646 22.9433C19.0172 23.2554 18.3916 23.3335 17.766 23.3335C17.0623 23.3335 16.4367 23.2554 15.9675 22.9433ZM18.939 21.3825C19.2518 21.0704 19.4082 20.6022 19.4082 20.0559C19.4082 19.5096 19.2518 19.1194 18.939 18.7293C18.6262 18.4171 18.2352 18.261 17.766 18.261C17.2968 18.261 16.9059 18.4171 16.5931 18.7293C16.2803 19.0414 16.1239 19.5096 16.1239 20.0559C16.1239 20.6022 16.2803 20.9924 16.5931 21.3825C16.9059 21.6947 17.2968 21.8508 17.766 21.8508C18.2352 21.8508 18.6262 21.6947 18.939 21.3825Z" fill="black"/>
<path d="M28.2446 17.1683C28.7138 17.4805 29.1048 17.7926 29.4175 18.3389C29.7303 18.8852 29.8085 19.4314 29.8085 20.0557C29.8085 20.68 29.6521 21.3043 29.4175 21.7725C29.183 22.2408 28.792 22.631 28.2446 22.9431C27.7754 23.2553 27.228 23.3333 26.6024 23.3333C25.7422 23.3333 25.0385 23.0212 24.5693 22.4749V23.1772H22.7707V14.437H24.6475V17.5585C25.1167 17.0123 25.7422 16.7781 26.6024 16.7781C27.228 16.7781 27.7754 16.9342 28.2446 17.1683ZM27.4626 21.3824C27.7754 21.0702 27.9318 20.602 27.9318 20.0557C27.9318 19.5095 27.7754 19.1193 27.4626 18.7291C27.1498 18.4169 26.7588 18.2609 26.2896 18.2609C25.8204 18.2609 25.4294 18.4169 25.1167 18.7291C24.8039 19.0412 24.6475 19.5095 24.6475 20.0557C24.6475 20.602 24.8039 20.9922 25.1167 21.3824C25.4294 21.7725 25.8204 21.8506 26.2896 21.8506C26.7588 21.8506 27.1498 21.6945 27.4626 21.3824Z" fill="black"/>
<path d="M31.3725 14.437H33.2493V23.2553H31.3725V14.437Z" fill="black"/>
<path d="M41.5382 20.6022H36.69C36.7682 20.9924 37.0028 21.3045 37.3155 21.5386C37.6283 21.7727 38.0193 21.8508 38.5667 21.8508C38.8795 21.8508 39.1923 21.7727 39.4269 21.6947C39.6615 21.6167 39.8961 21.4606 40.1307 21.2265L41.1473 22.319C40.5217 23.0213 39.5833 23.3335 38.4103 23.3335C37.7065 23.3335 37.081 23.1774 36.4554 22.9433C35.908 22.6311 35.4388 22.241 35.2042 21.7727C34.8914 21.3045 34.735 20.6802 34.735 20.0559C34.735 19.4316 34.8914 18.8853 35.2042 18.3391C35.517 17.8708 35.908 17.4026 36.4554 17.1685C37.0028 16.8564 37.5501 16.7783 38.1757 16.7783C38.8013 16.7783 39.3487 16.9344 39.8961 17.1685C40.4435 17.4026 40.8345 17.7928 41.0691 18.3391C41.3818 18.8073 41.5382 19.4316 41.5382 20.1339C41.5382 20.1339 41.5382 20.29 41.5382 20.6022ZM37.1592 18.4951C36.8464 18.7293 36.69 19.0414 36.6118 19.5096H39.7397C39.6615 19.1194 39.5051 18.8073 39.1923 18.5732C38.8795 18.3391 38.5667 18.183 38.1757 18.183C37.7847 18.183 37.4719 18.261 37.1592 18.4951Z" fill="black"/>
<path d="M53.2679 17.4804C53.7371 17.9486 53.9717 18.651 53.9717 19.5874V23.2552H52.095V19.8996C52.095 19.3533 52.0168 19.0411 51.7822 18.729C51.5476 18.4949 51.2348 18.3388 50.8438 18.3388C50.3746 18.3388 50.0618 18.4949 49.8272 18.729C49.5926 19.0411 49.4362 19.4313 49.4362 19.9776V23.1771H47.5595V19.8215C47.5595 18.807 47.1685 18.3388 46.3083 18.3388C45.9173 18.3388 45.5263 18.4949 45.2918 18.729C45.0572 19.0411 44.9008 19.4313 44.9008 19.9776V23.1771H43.1022V16.7781H44.9008V17.4804C45.1354 17.2463 45.4481 17.0122 45.7609 16.8561C46.0737 16.7 46.4647 16.622 46.9339 16.622C47.4031 16.622 47.7941 16.7 48.1851 16.8561C48.5761 17.0122 48.8107 17.3243 49.0453 17.6365C49.2798 17.3243 49.6708 17.0122 50.0618 16.8561C50.4528 16.7 50.922 16.5439 51.3912 16.5439C52.095 16.7781 52.7988 17.0122 53.2679 17.4804Z" fill="black"/>
<path d="M60.5404 23.1773C59.9148 23.0212 59.4456 22.7871 59.0546 22.4749L59.6802 20.9922C60.0712 21.2263 60.4622 21.4604 60.9314 21.6165C61.4005 21.7726 61.9479 21.8506 62.4171 21.8506C62.9645 21.8506 63.3555 21.7726 63.6683 21.6165C63.9029 21.4604 64.0593 21.2263 64.0593 20.9922C64.0593 20.7581 63.9811 20.602 63.8247 20.524C63.6683 20.3679 63.4337 20.2899 63.1991 20.2118C62.9645 20.1338 62.6517 20.0558 62.1825 19.9777C61.5569 19.8216 61.0096 19.6656 60.6186 19.5095C60.2276 19.3534 59.8366 19.1193 59.602 18.8072C59.3674 18.495 59.1328 18.0268 59.1328 17.4805C59.1328 17.0123 59.2892 16.5441 59.5238 16.1539C59.7584 15.7637 60.1494 15.4515 60.6968 15.2174C61.2441 14.9833 61.8697 14.9053 62.6517 14.9053C63.1991 14.9053 63.6683 14.9833 64.2157 15.0613C64.7631 15.2174 65.154 15.3735 65.545 15.6076L64.9195 17.0903C64.1375 16.6221 63.3555 16.466 62.5735 16.466C62.0261 16.466 61.6351 16.5441 61.4005 16.7001C61.166 16.8562 61.0096 17.0903 61.0096 17.4025C61.0096 17.7146 61.1659 17.8707 61.4787 18.0268C61.7915 18.1829 62.2607 18.3389 62.8081 18.417C63.4337 18.573 63.9811 18.7291 64.3721 18.8852C64.7631 19.0413 65.154 19.2754 65.3886 19.5875C65.6232 19.8997 65.8578 20.3679 65.8578 20.9142C65.8578 21.3824 65.7014 21.8506 65.4668 22.2408C65.2322 22.631 64.7631 22.9431 64.2939 23.1773C63.8247 23.4114 63.1209 23.4894 62.3389 23.4894C61.7915 23.4114 61.166 23.3333 60.5404 23.1773Z" fill="black"/>
<path d="M73.7558 20.6022H68.9076C68.9858 20.9924 69.2204 21.3045 69.5331 21.5386C69.8459 21.7727 70.2369 21.8508 70.7843 21.8508C71.0971 21.8508 71.4099 21.7727 71.6445 21.6947C71.8791 21.6167 72.1137 21.4606 72.3483 21.2265L73.3648 22.319C72.7393 23.0213 71.8791 23.3335 70.7061 23.3335C70.0023 23.3335 69.3767 23.1774 68.7512 22.9433C68.2038 22.6311 67.7346 22.241 67.4218 21.7727C67.109 21.3045 66.9526 20.6802 66.9526 20.0559C66.9526 19.4316 67.109 18.8853 67.4218 18.3391C67.7346 17.8708 68.1256 17.4026 68.673 17.1685C69.2203 16.8564 69.7677 16.7783 70.3933 16.7783C71.0189 16.7783 71.5663 16.9344 72.1137 17.1685C72.6611 17.4026 73.0521 17.7928 73.2866 18.3391C73.5212 18.8853 73.7558 19.4316 73.7558 20.1339C73.834 20.1339 73.834 20.29 73.7558 20.6022ZM69.4549 18.4951C69.1421 18.7293 68.9858 19.0414 68.9076 19.5096H72.0355C71.9573 19.1194 71.8009 18.8073 71.4881 18.5732C71.1753 18.3391 70.8625 18.183 70.4715 18.183C70.0805 18.183 69.6895 18.261 69.4549 18.4951Z" fill="black"/>
<path d="M79.5425 22.9433C79.3861 23.0993 79.1515 23.1774 78.8387 23.2554C78.5259 23.3335 78.2913 23.3335 77.9785 23.3335C77.1965 23.3335 76.6492 23.1774 76.18 22.7872C75.7108 22.397 75.5544 21.8507 75.5544 21.0704V18.4171H74.5378V17.0124H75.5544V15.4517H77.4311V17.0124H78.9951V18.4171H77.4311V20.9923C77.4311 21.2264 77.5093 21.4606 77.6657 21.6166C77.8221 21.7727 77.9785 21.8507 78.2913 21.8507C78.6041 21.8507 78.8387 21.7727 79.0733 21.6166L79.5425 22.9433Z" fill="black"/>
<path d="M82.4358 14.671C82.6704 14.9051 82.7486 15.1393 82.7486 15.5295C82.7486 15.6855 82.7486 15.8416 82.6704 15.9977C82.5922 16.1538 82.514 16.3879 82.4358 16.7L81.732 18.4168H80.5591L81.1065 16.5439C80.8719 16.4659 80.7155 16.3098 80.6373 16.1538C80.5591 15.9977 80.4809 15.7636 80.4809 15.5295C80.4809 15.2173 80.5591 14.9051 80.7937 14.671C81.0283 14.4369 81.2629 14.3589 81.6538 14.3589C82.0448 14.3589 82.2012 14.4369 82.4358 14.671Z" fill="black"/>
<path d="M89.63 19.4316C90.021 19.8218 90.2556 20.29 90.2556 20.9924C90.2556 21.6947 90.021 22.241 89.5518 22.6311C89.0826 23.0213 88.3789 23.1774 87.5187 23.1774H84.3908V16.7783H86.2675V18.8073H87.8315C88.5353 18.8853 89.1608 19.1195 89.63 19.4316ZM88.1443 21.7727C88.3007 21.6167 88.4571 21.3825 88.4571 21.0704C88.4571 20.7582 88.3789 20.5241 88.1443 20.3681C87.9879 20.212 87.6751 20.1339 87.2841 20.1339H86.1893V22.0068H87.2841C87.6751 22.0068 87.9097 21.9288 88.1443 21.7727ZM90.9594 16.8564H92.8362V23.2554H90.9594V16.8564Z" fill="black"/>
<path d="M140.068 260.958V269.308H138.113V262.519H134.359V269.308H132.404V260.958H140.068Z" fill="black"/>
<path d="M143.43 268.996C142.883 268.683 142.492 268.293 142.179 267.825C141.866 267.357 141.71 266.732 141.71 266.108C141.71 265.484 141.866 264.938 142.179 264.391C142.492 263.845 142.883 263.533 143.43 263.221C143.978 262.909 144.603 262.831 145.229 262.831C145.933 262.831 146.48 262.987 147.027 263.221C147.575 263.533 147.966 263.923 148.279 264.391C148.591 264.86 148.748 265.484 148.748 266.108C148.748 266.732 148.591 267.279 148.279 267.825C147.966 268.293 147.575 268.683 147.027 268.996C146.48 269.308 145.854 269.386 145.229 269.386C144.603 269.386 143.978 269.23 143.43 268.996ZM146.48 267.357C146.793 267.045 146.949 266.576 146.949 266.03C146.949 265.484 146.793 265.094 146.48 264.703C146.167 264.391 145.776 264.235 145.307 264.235C144.838 264.235 144.447 264.391 144.134 264.703C143.821 265.016 143.665 265.484 143.665 266.03C143.665 266.576 143.821 266.967 144.134 267.357C144.447 267.669 144.838 267.825 145.307 267.825C145.776 267.825 146.167 267.669 146.48 267.357Z" fill="black"/>
<path d="M156.489 262.909V269.308H154.613V264.391H152.579L152.501 265.562C152.501 266.42 152.423 267.123 152.267 267.669C152.11 268.215 151.954 268.683 151.641 268.996C151.328 269.308 150.937 269.464 150.468 269.464C150.234 269.464 149.843 269.386 149.53 269.308L149.608 267.747C149.764 267.747 149.843 267.747 149.921 267.747C150.234 267.747 150.39 267.669 150.546 267.435C150.703 267.201 150.781 266.967 150.859 266.654C150.937 266.342 150.937 265.952 150.937 265.406L151.016 262.831H156.489V262.909Z" fill="black"/>
<path d="M165.013 262.909L162.12 269.698C161.807 270.4 161.494 270.946 161.025 271.259C160.556 271.571 160.086 271.727 159.461 271.727C159.148 271.727 158.757 271.649 158.444 271.571C158.132 271.493 157.819 271.337 157.662 271.103L158.366 269.776C158.523 269.932 158.679 270.01 158.835 270.088C158.992 270.166 159.226 270.166 159.383 270.166C159.617 270.166 159.852 270.088 160.008 270.01C160.165 269.854 160.321 269.698 160.399 269.386V269.308L157.584 262.831H159.539L161.338 267.201L163.136 262.831H165.013V262.909Z" fill="black"/>
<path d="M171.973 262.909V269.308H170.096V266.889C169.548 267.123 168.923 267.279 168.297 267.279C167.437 267.279 166.812 267.045 166.342 266.654C165.873 266.264 165.717 265.64 165.717 264.86V262.909H167.593V264.782C167.593 265.172 167.672 265.484 167.906 265.64C168.141 265.796 168.375 265.874 168.766 265.874C169.236 265.874 169.705 265.796 170.174 265.562V262.909H171.973Z" fill="black"/>
<path d="M178.854 263.455C179.401 263.923 179.636 264.626 179.636 265.562V269.23H177.916V268.45C177.603 269.074 176.899 269.308 175.961 269.308C175.491 269.308 175.022 269.23 174.71 269.074C174.319 268.918 174.084 268.684 173.849 268.372C173.693 268.059 173.537 267.747 173.537 267.357C173.537 266.733 173.771 266.265 174.24 265.952C174.71 265.64 175.413 265.406 176.352 265.406H177.837C177.837 265.016 177.681 264.704 177.446 264.47C177.212 264.236 176.821 264.158 176.352 264.158C176.039 264.158 175.648 264.236 175.335 264.314C175.022 264.392 174.71 264.548 174.475 264.782L173.771 263.455C174.084 263.221 174.553 262.987 175.022 262.909C175.491 262.753 176.039 262.675 176.508 262.675C177.525 262.753 178.307 262.987 178.854 263.455ZM177.212 267.903C177.446 267.747 177.603 267.513 177.759 267.279V266.655H176.508C175.726 266.655 175.335 266.889 175.335 267.435C175.335 267.669 175.413 267.825 175.648 267.981C175.804 268.137 176.117 268.215 176.43 268.215C176.743 268.137 176.977 268.059 177.212 267.903Z" fill="black"/>
<path d="M181.591 262.909H183.468V266.733L186.596 262.909H188.316V269.308H186.439V265.484L183.311 269.308H181.591V262.909ZM182.686 260.333H183.937C183.937 260.646 184.015 260.802 184.171 260.958C184.328 261.114 184.562 261.192 184.797 261.192C185.11 261.192 185.266 261.114 185.423 260.958C185.579 260.802 185.657 260.568 185.657 260.333H186.908C186.908 261.582 186.205 262.206 184.797 262.206C183.39 262.206 182.686 261.582 182.686 260.333Z" fill="black"/>
<path d="M125.679 275.239H127.634V282.028H131.857V283.589H125.758V275.239H125.679Z" fill="black"/>
<path d="M139.677 282.028V283.589H133.186V275.239H139.52V276.8H135.141V278.594H139.051V280.077H135.141V282.028H139.677Z" fill="black"/>
<path d="M143.196 276.8H140.537V275.239H147.809V276.8H145.151V283.589H143.196V276.8Z" fill="black"/>
<path d="M149.217 275.239H151.172V283.589H149.217V275.239Z" fill="black"/>
<path d="M155.082 283.199C154.378 282.808 153.831 282.34 153.44 281.638C153.049 281.013 152.814 280.233 152.814 279.453C152.814 278.672 153.049 277.892 153.44 277.268C153.831 276.643 154.378 276.097 155.082 275.707C155.786 275.317 156.568 275.161 157.428 275.161C158.132 275.161 158.835 275.317 159.383 275.551C159.93 275.785 160.477 276.175 160.868 276.643L159.617 277.736C159.07 277.112 158.366 276.721 157.506 276.721C156.959 276.721 156.489 276.799 156.098 277.034C155.707 277.268 155.395 277.58 155.16 277.97C154.925 278.36 154.847 278.828 154.847 279.375C154.847 279.921 154.925 280.389 155.16 280.779C155.395 281.17 155.707 281.482 156.098 281.716C156.489 281.95 156.959 282.028 157.506 282.028C158.366 282.028 159.07 281.716 159.617 281.013L160.868 282.184C160.477 282.652 160.008 283.042 159.383 283.277C158.757 283.511 158.132 283.667 157.428 283.667C156.568 283.745 155.786 283.589 155.082 283.199Z" fill="black"/>
<path d="M163.996 283.199C163.293 282.808 162.745 282.34 162.354 281.638C161.963 281.013 161.729 280.233 161.729 279.453C161.729 278.672 161.963 277.892 162.354 277.268C162.745 276.643 163.293 276.097 163.996 275.707C164.7 275.317 165.482 275.161 166.342 275.161C167.203 275.161 167.984 275.317 168.688 275.707C169.392 276.097 169.939 276.565 170.33 277.268C170.721 277.892 170.956 278.672 170.956 279.453C170.956 280.233 170.721 281.013 170.33 281.638C169.939 282.262 169.392 282.808 168.688 283.199C167.984 283.589 167.203 283.745 166.342 283.745C165.482 283.745 164.7 283.589 163.996 283.199ZM167.672 281.716C168.063 281.482 168.375 281.17 168.61 280.779C168.845 280.389 168.923 279.921 168.923 279.375C168.923 278.828 168.845 278.36 168.61 277.97C168.375 277.58 168.063 277.268 167.672 277.034C167.281 276.799 166.812 276.721 166.342 276.721C165.873 276.721 165.404 276.799 165.013 277.034C164.622 277.268 164.309 277.58 164.075 277.97C163.84 278.36 163.762 278.828 163.762 279.375C163.762 279.921 163.84 280.389 164.075 280.779C164.309 281.17 164.622 281.482 165.013 281.716C165.404 281.95 165.873 282.028 166.342 282.028C166.812 282.106 167.281 281.95 167.672 281.716Z" fill="black"/>
<path d="M172.676 275.239H174.631V283.589H172.676V275.239Z" fill="black"/>
<path d="M184.562 275.239V283.589H182.999L178.854 278.516V283.589H176.977V275.239H178.541L182.686 280.311V275.239H184.562Z" fill="black"/>
<path d="M188.238 275.005C188.472 275.239 188.551 275.473 188.551 275.863C188.551 276.019 188.551 276.175 188.472 276.331C188.394 276.487 188.316 276.721 188.238 277.034L187.534 278.75H186.361L186.908 276.877C186.674 276.799 186.517 276.643 186.439 276.487C186.361 276.331 186.283 276.097 186.283 275.863C186.283 275.551 186.361 275.239 186.596 275.005C186.83 274.77 187.065 274.692 187.456 274.692C187.847 274.692 188.003 274.77 188.238 275.005Z" fill="black"/>
<path d="M195.432 279.765C195.823 280.155 196.058 280.623 196.058 281.325C196.058 282.028 195.823 282.574 195.354 282.964C194.885 283.354 194.181 283.51 193.321 283.51H190.193V277.111H192.069V279.14H193.633C194.415 279.218 195.041 279.452 195.432 279.765ZM193.946 282.028C194.103 281.872 194.259 281.638 194.259 281.325C194.259 281.013 194.181 280.779 193.946 280.623C193.79 280.467 193.477 280.389 193.086 280.389H191.991V282.262H193.086C193.477 282.262 193.79 282.184 193.946 282.028ZM196.761 277.189H198.638V283.588H196.761V277.189Z" fill="black"/>
<path d="M44.6662 123.69C43.806 147.725 53.8935 170.668 72.8175 185.652C83.5306 194.08 96.3551 200.245 109.727 203.21C112.698 203.834 113.95 199.308 110.978 198.684C98.8574 196.031 87.0495 190.568 77.1965 183.154C58.5072 169.03 48.5761 147.023 49.358 123.69C49.5144 120.646 44.8226 120.646 44.6662 123.69Z" fill="#111111"/>
<path d="M275.272 123.69C276.132 146.945 266.201 169.03 247.434 183.154C237.503 190.646 225.773 196.031 213.652 198.684C210.681 199.308 211.932 203.834 214.903 203.21C228.275 200.245 241.1 194.08 251.813 185.652C270.737 170.668 280.824 147.725 279.964 123.69C279.886 120.646 275.194 120.646 275.272 123.69Z" fill="#111111"/>
<path d="M266.436 1.79464H263.777V8.58391H261.9V1.79464H259.242V0.233887H266.514V1.79464H266.436Z" fill="black"/>
<path d="M273.083 2.49703C273.552 2.80919 273.943 3.12133 274.256 3.6676C274.568 4.21386 274.647 4.76013 274.647 5.38443C274.647 6.00873 274.49 6.63303 274.256 7.10125C274.021 7.56948 273.63 7.95967 273.083 8.27182C272.613 8.58397 272.066 8.66201 271.44 8.66201C270.659 8.66201 269.955 8.42789 269.486 7.88163V10.8471H267.609V2.18488H269.407V2.88722C269.877 2.34096 270.58 2.02881 271.44 2.02881C272.066 2.02881 272.535 2.18488 273.083 2.49703ZM272.301 6.63303C272.613 6.32088 272.77 5.85265 272.77 5.30639C272.77 4.76013 272.613 4.36994 272.301 3.97975C271.988 3.6676 271.597 3.51152 271.128 3.51152C270.659 3.51152 270.268 3.6676 269.955 3.97975C269.642 4.2919 269.486 4.76013 269.486 5.30639C269.486 5.85265 269.642 6.24284 269.955 6.63303C270.268 6.94518 270.659 7.10125 271.128 7.10125C271.597 7.10125 271.988 6.94518 272.301 6.63303Z" fill="black"/>
<path d="M280.902 2.80918C281.45 3.27741 281.684 3.97975 281.684 4.9162V8.58397H279.964V7.80359C279.651 8.42789 278.948 8.66201 278.009 8.66201C277.54 8.66201 277.071 8.58397 276.758 8.42789C276.367 8.27182 276.132 8.03771 275.898 7.72556C275.741 7.4134 275.585 7.10125 275.585 6.71107C275.585 6.08677 275.82 5.61854 276.289 5.30639C276.758 4.99424 277.462 4.76013 278.4 4.76013H279.886C279.886 4.36994 279.729 4.05779 279.495 3.82367C279.26 3.58956 278.869 3.51152 278.4 3.51152C278.087 3.51152 277.696 3.58956 277.384 3.6676C277.071 3.74564 276.758 3.90171 276.523 4.13582L275.82 2.80918C276.132 2.57507 276.602 2.34096 277.071 2.26292C277.54 2.10685 278.087 2.02881 278.557 2.02881C279.651 2.02881 280.355 2.26292 280.902 2.80918ZM279.339 7.17929C279.573 7.02322 279.729 6.7891 279.886 6.55499V5.93069H278.635C277.853 5.93069 277.462 6.1648 277.462 6.71107C277.462 6.94518 277.54 7.10125 277.775 7.25733C277.931 7.4134 278.244 7.49144 278.557 7.49144C278.791 7.41341 279.104 7.33537 279.339 7.17929Z" fill="black"/>
<path d="M289.035 3.66769H286.846V8.58406H284.969V3.66769H282.779V2.10693H288.957V3.66769H289.035Z" fill="black"/>
<path d="M295.76 4.7603C296.229 5.15049 296.464 5.61871 296.464 6.32105C296.464 7.02339 296.229 7.56965 295.682 7.95984C295.213 8.35003 294.509 8.58414 293.571 8.58414H290.364V2.18506H292.241V4.21404H293.883C294.665 4.21404 295.291 4.37011 295.76 4.7603ZM294.196 7.02339C294.353 6.86732 294.509 6.6332 294.509 6.32105C294.509 6.0089 294.431 5.77479 294.196 5.61871C294.04 5.46264 293.727 5.3846 293.336 5.3846H292.163V7.2575H293.336C293.727 7.2575 294.04 7.17947 294.196 7.02339Z" fill="black"/>
<path d="M248.216 21.07C248.216 21.6163 247.981 22.0845 247.59 22.3967C247.121 22.7088 246.495 22.8649 245.635 22.8649H242.194V16.4658H245.479C246.261 16.4658 246.886 16.6219 247.356 16.934C247.825 17.2462 248.059 17.6364 248.059 18.1826C248.059 18.4948 247.981 18.8069 247.825 19.0411C247.668 19.2752 247.434 19.5093 247.121 19.5873C247.903 19.8214 248.216 20.2897 248.216 21.07ZM243.915 19.1191H245.322C245.948 19.1191 246.339 18.885 246.339 18.4168C246.339 17.9485 246.026 17.7144 245.322 17.7144H243.915V19.1191ZM246.495 20.914C246.495 20.6799 246.417 20.5238 246.261 20.3677C246.104 20.2897 245.87 20.2116 245.479 20.2116H243.915V21.6163H245.479C246.183 21.6163 246.495 21.3822 246.495 20.914Z" fill="black"/>
<path d="M261.353 22.8647V17.8703L258.929 22.0063H258.069L255.644 18.0263V22.9427H253.846V14.5146H255.41L258.538 19.6651L261.588 14.5146H263.152V22.8647H261.353Z" fill="black"/>
<path d="M270.189 17.0899C270.737 17.5582 270.971 18.2605 270.971 19.197V22.8647H269.251V22.0844C268.938 22.7087 268.234 22.9428 267.296 22.9428C266.827 22.9428 266.358 22.8647 266.045 22.7087C265.654 22.5526 265.419 22.3185 265.185 22.0063C265.028 21.6942 264.872 21.382 264.872 20.9918C264.872 20.3675 265.106 19.8993 265.576 19.5872C266.045 19.275 266.749 19.0409 267.687 19.0409H269.173C269.173 18.6507 269.016 18.3385 268.782 18.1044C268.547 17.8703 268.156 17.7923 267.687 17.7923C267.374 17.7923 266.983 17.8703 266.67 17.9484C266.358 18.0264 266.045 18.1825 265.81 18.4166L265.106 17.0899C265.419 16.8558 265.888 16.6217 266.358 16.5437C266.827 16.3876 267.374 16.3096 267.843 16.3096C268.938 16.3876 269.642 16.6217 270.189 17.0899ZM268.625 21.5381C268.86 21.382 269.016 21.1479 269.173 20.9138V20.2115H267.922C267.14 20.2115 266.749 20.4456 266.749 20.9918C266.749 21.2259 266.827 21.382 267.061 21.5381C267.218 21.6942 267.531 21.7722 267.843 21.7722C268.078 21.6942 268.391 21.6161 268.625 21.5381Z" fill="black"/>
<path d="M278.087 18.0267H274.803V22.943H272.926V16.5439H278.087V18.0267Z" fill="black"/>
<path d="M284.187 17.0899C284.734 17.5582 284.969 18.2605 284.969 19.197V22.8647H283.248V22.0844C282.936 22.7087 282.232 22.9428 281.293 22.9428C280.824 22.9428 280.355 22.8647 280.042 22.7087C279.651 22.5526 279.417 22.3185 279.182 22.0063C279.026 21.6942 278.869 21.382 278.869 20.9918C278.869 20.3675 279.104 19.8993 279.573 19.5872C280.042 19.275 280.746 19.0409 281.684 19.0409H283.17C283.17 18.6507 283.014 18.3385 282.779 18.1044C282.545 17.8703 282.154 17.7923 281.684 17.7923C281.372 17.7923 280.981 17.8703 280.668 17.9484C280.355 18.0264 280.042 18.1825 279.808 18.4166L279.104 17.0899C279.417 16.8558 279.886 16.6217 280.355 16.5437C280.824 16.3876 281.372 16.3096 281.841 16.3096C282.857 16.3876 283.639 16.6217 284.187 17.0899ZM282.545 21.5381C282.779 21.382 282.936 21.1479 283.092 20.9138V20.2115H281.841C281.059 20.2115 280.668 20.4456 280.668 20.9918C280.668 21.2259 280.746 21.382 280.981 21.5381C281.137 21.6942 281.45 21.7722 281.763 21.7722C282.075 21.6942 282.31 21.6161 282.545 21.5381Z" fill="black"/>
<path d="M291.85 20.0554C292.085 20.2895 292.163 20.6016 292.163 20.9138C292.163 21.304 292.007 21.6942 291.772 22.0063C291.537 22.3185 291.146 22.5526 290.599 22.7087C290.052 22.8647 289.582 22.9428 288.957 22.9428C288.488 22.9428 287.94 22.8647 287.471 22.7867C287.002 22.7087 286.533 22.5526 286.142 22.3185L286.611 20.9918C287.315 21.304 288.018 21.4601 288.879 21.4601C289.348 21.4601 289.661 21.382 289.895 21.2259C290.13 21.0699 290.286 20.9138 290.286 20.6797C290.286 20.4456 290.208 20.2895 290.052 20.2115C289.895 20.1334 289.661 20.0554 289.27 20.0554H287.94V18.8848H289.113C289.426 18.8848 289.661 18.8068 289.895 18.7287C290.052 18.6507 290.13 18.4946 290.13 18.2605C290.13 18.0264 290.052 17.8703 289.817 17.7923C289.582 17.7142 289.27 17.6362 288.879 17.6362C288.253 17.6362 287.549 17.7923 286.846 18.1044L286.376 16.8558C287.237 16.4656 288.175 16.3096 288.957 16.3096C289.504 16.3096 290.052 16.3876 290.521 16.5437C290.99 16.6998 291.303 16.9339 291.616 17.168C291.85 17.4801 292.007 17.7923 292.007 18.1044C292.007 18.4166 291.928 18.6507 291.694 18.8848C291.459 19.1189 291.225 19.353 290.912 19.4311C291.381 19.6652 291.694 19.8213 291.85 20.0554Z" fill="black"/>
<path d="M293.883 16.4658H295.76V20.2897L298.888 16.4658H300.608V22.8649H298.732V19.0411L295.604 22.8649H293.883V16.4658Z" fill="black"/>
<path d="M302.642 16.4658H304.518V18.963H307.333V16.4658H309.21V22.8649H307.333V20.4457H304.518V22.8649H302.642V16.4658Z" fill="black"/>
<path d="M317.421 20.2115H312.573C312.651 20.6017 312.885 20.9139 313.198 21.148C313.511 21.3821 313.902 21.4601 314.449 21.4601C314.762 21.4601 315.075 21.3821 315.31 21.3041C315.544 21.226 315.779 21.07 316.013 20.8358L317.03 21.9284C316.404 22.6307 315.544 22.9429 314.371 22.9429C313.667 22.9429 313.042 22.7868 312.416 22.5527C311.869 22.2405 311.4 21.8503 311.087 21.3821C310.774 20.9139 310.618 20.2896 310.618 19.6653C310.618 19.041 310.774 18.4947 311.087 17.9484C311.4 17.4022 311.791 17.012 312.338 16.7779C312.885 16.4657 313.433 16.3877 314.058 16.3877C314.684 16.3877 315.231 16.5438 315.779 16.7779C316.326 17.012 316.717 17.4022 316.952 17.9484C317.265 18.4167 317.421 19.041 317.421 19.7433C317.499 19.7433 317.499 19.8994 317.421 20.2115ZM313.042 18.1045C312.729 18.3386 312.573 18.6508 312.494 19.119H315.622C315.544 18.7288 315.388 18.4167 315.075 18.1826C314.762 17.9485 314.449 17.7924 314.058 17.7924C313.746 17.7924 313.355 17.8704 313.042 18.1045Z" fill="black"/>
<defs>
<linearGradient id="paint0_linear_108_371" x1="66.8784" y1="107.386" x2="27.8349" y2="39.6208" gradientUnits="userSpaceOnUse">
<stop offset="3.04946e-07" stop-color="#0044D0"/>
<stop offset="0.1502" stop-color="#0852D5"/>
<stop offset="0.4285" stop-color="#1265DC"/>
<stop offset="0.7107" stop-color="#1971E1"/>
<stop offset="1" stop-color="#1B75E2"/>
</linearGradient>
<linearGradient id="paint1_linear_108_371" x1="182.348" y1="246.749" x2="143.305" y2="178.985" gradientUnits="userSpaceOnUse">
<stop offset="3.04946e-07" stop-color="#0044D0"/>
<stop offset="0.1502" stop-color="#0852D5"/>
<stop offset="0.4285" stop-color="#1265DC"/>
<stop offset="0.7107" stop-color="#1971E1"/>
<stop offset="1" stop-color="#1B75E2"/>
</linearGradient>
<linearGradient id="paint2_linear_108_371" x1="299.594" y1="106.6" x2="260.551" y2="38.8354" gradientUnits="userSpaceOnUse">
<stop offset="3.04946e-07" stop-color="#0044D0"/>
<stop offset="0.1502" stop-color="#0852D5"/>
<stop offset="0.4285" stop-color="#1265DC"/>
<stop offset="0.7107" stop-color="#1971E1"/>
<stop offset="1" stop-color="#1B75E2"/>
</linearGradient>
</defs>
</svg>
