<svg width="21" height="22" viewBox="0 0 21 22" fill="none" xmlns="http://www.w3.org/2000/svg">
<g clip-path="url(#clip0_109_445)">
<path d="M10.5 21.9941C16.299 21.9941 21 17.2931 21 11.4941C21 5.69517 16.299 0.994141 10.5 0.994141C4.70103 0.994141 0 5.69517 0 11.4941C0 17.2931 4.70103 21.9941 10.5 21.9941Z" fill="url(#paint0_linear_109_445)"/>
<path d="M3.91046 12.0079C5.1379 11.3318 6.50807 10.7675 7.78828 10.2003C9.99074 9.27136 12.202 8.35847 14.4355 7.50859C14.87 7.36377 15.6509 7.22215 15.7274 7.86615C15.6855 8.77773 15.513 9.68397 15.3947 10.5902C15.0945 12.5831 14.7475 14.5692 14.4091 16.5555C14.2925 17.2171 13.4636 17.5597 12.9333 17.1363C11.6588 16.2753 10.3744 15.4228 9.11618 14.542C8.70401 14.1231 9.08621 13.5217 9.45432 13.2226C10.5041 12.1881 11.6173 11.3092 12.6122 10.2212C12.8806 9.57315 12.0876 10.1193 11.8261 10.2867C10.389 11.277 8.98707 12.3278 7.47192 13.1981C6.69798 13.6242 5.79595 13.2601 5.02236 13.0224C4.32874 12.7352 3.3124 12.4458 3.91046 12.0079Z" fill="white"/>
</g>
<defs>
<linearGradient id="paint0_linear_109_445" x1="7.87622" y1="1.86984" x2="2.62622" y2="14.1191" gradientUnits="userSpaceOnUse">
<stop stop-color="#37AEE2"/>
<stop offset="1" stop-color="#1E96C8"/>
</linearGradient>
<clipPath id="clip0_109_445">
<rect width="21" height="21" fill="white" transform="translate(0 0.994141)"/>
</clipPath>
</defs>
</svg>
