<svg width="19" height="20" viewBox="0 0 19 20" fill="none" xmlns="http://www.w3.org/2000/svg">
<g clip-path="url(#clip0_109_441)">
<path d="M15.675 0.994141H3.325C1.48865 0.994141 0 2.48279 0 4.31914V16.6691C0 18.5055 1.48865 19.9941 3.325 19.9941H15.675C17.5113 19.9941 19 18.5055 19 16.6691V4.31914C19 2.48279 17.5113 0.994141 15.675 0.994141Z" fill="#4489C8"/>
<path d="M2.85593 6.86355H5.13593C5.1836 6.86347 5.23016 6.87792 5.2694 6.90497C5.30865 6.93202 5.33873 6.97038 5.35562 7.01495C5.60796 7.66511 6.65593 10.2093 7.61484 10.4171C8.32734 10.4171 8.07499 7.03277 7.16953 7.03277C6.93203 7.03277 7.59109 6.6112 7.63562 6.59339C8.47708 6.36275 9.3651 6.36275 10.2066 6.59339C10.6608 6.78339 10.738 7.3148 10.7498 7.76605C10.7617 8.2173 10.2452 10.141 10.925 10.3489C11.8156 10.622 12.9616 7.82839 13.2287 7.14261C13.2461 7.09859 13.2764 7.06086 13.3156 7.03437C13.3548 7.00788 13.4011 6.99386 13.4484 6.99417H15.9867C16.0259 6.99405 16.0646 7.00364 16.0992 7.0221C16.1338 7.04055 16.1633 7.06729 16.1851 7.09993C16.2068 7.13257 16.2202 7.17009 16.2239 7.20913C16.2276 7.24818 16.2216 7.28754 16.2064 7.3237C15.6836 8.51647 15.0567 9.66089 14.3331 10.7437C14.2716 10.8331 14.2427 10.9409 14.2514 11.049C14.26 11.1572 14.3057 11.259 14.3806 11.3375C15.1406 12.1509 17.2187 14.4546 16.0312 14.4546H13.4692C13.403 14.4548 13.3375 14.4409 13.2771 14.4137C13.2167 14.3866 13.1628 14.3469 13.1189 14.2973C12.7211 13.8579 11.5633 12.6348 11.0408 12.7328C10.6073 12.8129 10.5658 13.5492 10.5866 14.0301C10.5931 14.1542 10.5508 14.2759 10.4686 14.3691C10.3865 14.4624 10.2711 14.5197 10.1472 14.5289C9.69296 14.5556 9.07249 14.5675 9.01609 14.5645C7.20515 14.4487 6.13343 13.2404 5.10921 11.8926C4.03635 10.4637 3.19944 8.87204 2.63031 7.17824C2.61867 7.1424 2.61563 7.10432 2.62141 7.06709C2.62719 7.02986 2.64165 6.9945 2.6636 6.96388C2.68556 6.93326 2.7144 6.90822 2.74781 6.89079C2.78122 6.87337 2.81826 6.86403 2.85593 6.86355Z" fill="white"/>
</g>
<defs>
<clipPath id="clip0_109_441">
<rect width="19" height="19" fill="white" transform="translate(0 0.994141)"/>
</clipPath>
</defs>
</svg>
